<?xml version="1.0" standalone="no"?><!DOCTYPE svg PUBLIC "-//W3C//DTD SVG 1.1//EN" "http://www.w3.org/Graphics/SVG/1.1/DTD/svg11.dtd"><svg t="1629081475289" class="icon" viewBox="0 0 1024 1024" version="1.1" xmlns="http://www.w3.org/2000/svg" p-id="1930" xmlns:xlink="http://www.w3.org/1999/xlink" width="200" height="200"><defs><style type="text/css"></style></defs><path d="M633.6 320c-57.6 19.2-115.2 57.6-147.2 89.6 0-6.4-6.4-12.8-6.4-19.2 0-6.4-6.4-12.8-6.4-19.2-19.2-32-32-64-44.8-89.6-19.2-25.6-44.8-51.2-76.8-57.6-38.4-6.4-70.4 6.4-115.2 32-51.2 38.4-76.8 83.2-76.8 134.4s19.2 102.4 38.4 153.6c44.8 83.2 115.2 166.4 160 224l19.2 19.2 12.8 12.8h19.2c89.6-6.4 217.6-44.8 313.6-108.8 51.2-32 89.6-70.4 115.2-115.2 25.6-44.8 32-102.4 12.8-160-19.2-51.2-57.6-89.6-96-102.4-44.8-12.8-83.2-6.4-121.6 6.4z" fill="#EF5151" p-id="1931"></path><path d="M377.6 832l-38.4-44.8c-51.2-57.6-121.6-140.8-166.4-230.4-32-57.6-44.8-115.2-44.8-166.4 0-64 32-121.6 96-160 44.8-32 89.6-44.8 134.4-38.4 38.4 6.4 70.4 32 96 70.4 19.2 25.6 32 57.6 44.8 89.6 32-19.2 76.8-44.8 121.6-64 51.2-19.2 102.4-19.2 140.8-6.4 51.2 19.2 89.6 57.6 115.2 121.6 25.6 64 19.2 128-12.8 185.6-25.6 44.8-70.4 89.6-128 128-89.6 57.6-224 102.4-326.4 115.2h-32z m-51.2-576c-19.2 0-44.8 6.4-70.4 25.6-44.8 25.6-64 64-64 108.8 0 38.4 12.8 83.2 38.4 134.4 44.8 83.2 108.8 160 160 217.6l19.2 25.6c83.2-6.4 204.8-44.8 300.8-102.4 51.2-32 83.2-70.4 102.4-102.4 25.6-44.8 25.6-89.6 6.4-134.4-19.2-44.8-44.8-70.4-76.8-83.2-25.6-12.8-64-6.4-102.4 6.4-57.6 19.2-108.8 64-134.4 83.2l-38.4 25.6-25.6-83.2-38.4-76.8c-19.2-25.6-38.4-38.4-57.6-44.8h-19.2z" p-id="1932"></path></svg>