<?xml version="1.0" standalone="no"?><!DOCTYPE svg PUBLIC "-//W3C//DTD SVG 1.1//EN" "http://www.w3.org/Graphics/SVG/1.1/DTD/svg11.dtd"><svg t="1629084695897" class="icon" viewBox="0 0 1024 1024" version="1.1" xmlns="http://www.w3.org/2000/svg" p-id="2896" xmlns:xlink="http://www.w3.org/1999/xlink" width="200" height="200"><defs><style type="text/css"></style></defs><path d="M780.8 236.8l44.8 44.8c25.6 25.6 25.6 64 0 89.6-25.6 25.6-64 25.6-89.6 0l-44.8-44.8c-25.6-25.6-25.6-64 0-89.6 25.6-25.6 64-25.6 89.6 0z" fill="#F07F7F" p-id="2897"></path><path d="M462.592 645.184L734.08 373.76l45.312 45.248-271.552 271.488z" fill="#E0A83A" p-id="2898"></path><path d="M396.8 665.6c12.8 12.8 12.8 32 0 44.8l-89.6 89.6c-12.8 12.8-32 12.8-44.8 0-12.8-12.8-12.8-32 0-44.8l89.6-89.6c12.8-12.8 32-12.8 44.8 0z" fill="#525252" p-id="2899"></path><path d="M372.736 554.688l271.488-271.552 135.808 135.808-271.552 271.488z" fill="#F5C66A" p-id="2900"></path><path d="M371.2 556.8l-44.8 134.4 44.8 44.8 134.4-44.8-134.4-134.4z" fill="#F9F0DF" p-id="2901"></path><path d="M644.224 280.896l45.248-45.248 135.808 135.744-45.248 45.248z" fill="#D6D6D6" p-id="2902"></path><path d="M736 217.6c19.2 0 32 6.4 44.8 19.2l44.8 44.8c25.6 25.6 25.6 64 0 89.6l-44.8 44.8-134.4 134.4L512 684.8l-134.4 44.8-70.4 70.4c-6.4 6.4-12.8 6.4-25.6 6.4-6.4 0-19.2 0-25.6-6.4-12.8-12.8-12.8-32 0-44.8l70.4-70.4 44.8-134.4L640 281.6l44.8-44.8c19.2-12.8 32-19.2 51.2-19.2m0-64c-32 0-64 12.8-89.6 38.4l-44.8 44.8-275.2 268.8-6.4 12.8-6.4 12.8-38.4 121.6-57.6 57.6c-38.4 38.4-38.4 96 0 134.4 19.2 19.2 44.8 25.6 70.4 25.6 25.6 0 51.2-12.8 70.4-25.6l57.6-57.6 121.6-38.4 12.8-6.4 12.8-12.8 134.4-134.4L832 460.8l44.8-44.8c51.2-51.2 51.2-128 0-179.2l-51.2-44.8c-25.6-25.6-57.6-38.4-89.6-38.4z" p-id="2903"></path></svg>