<?xml version="1.0" standalone="no"?><!DOCTYPE svg PUBLIC "-//W3C//DTD SVG 1.1//EN" "http://www.w3.org/Graphics/SVG/1.1/DTD/svg11.dtd"><svg t="1629084843844" class="icon" viewBox="0 0 1024 1024" version="1.1" xmlns="http://www.w3.org/2000/svg" p-id="3192" xmlns:xlink="http://www.w3.org/1999/xlink" width="200" height="200"><defs><style type="text/css"></style></defs><path d="M256 160c-19.2 0-32 12.8-32 32v640c0 19.2 12.8 32 32 32h512c19.2 0 32-12.8 32-32V364.8c0-19.2-12.8-32-32-32h-108.8c-19.2 0-32-12.8-32-32V192c0-19.2-12.8-32-32-32H256z" fill="#67C8AE" p-id="3193"></path><path d="M768 896H256c-38.4 0-64-25.6-64-64V192c0-38.4 25.6-64 64-64h339.2c38.4 0 64 25.6 64 64v108.8H768c38.4 0 64 25.6 64 64V832c0 38.4-25.6 64-64 64zM256 192v640h512V364.8h-108.8c-38.4 0-64-25.6-64-64V192H256z m0-32V192v-32z" p-id="3194"></path><path d="M416 384h64c19.2 0 32 12.8 32 32s-12.8 32-32 32h-64c-19.2 0-32-12.8-32-32s12.8-32 32-32zM416 512h192c19.2 0 32 12.8 32 32s-12.8 32-32 32h-192c-19.2 0-32-12.8-32-32s12.8-32 32-32zM416 640h192c19.2 0 32 12.8 32 32s-12.8 32-32 32h-192c-19.2 0-32-12.8-32-32s12.8-32 32-32z" p-id="3195"></path></svg>