<?xml version="1.0" standalone="no"?><!DOCTYPE svg PUBLIC "-//W3C//DTD SVG 1.1//EN" "http://www.w3.org/Graphics/SVG/1.1/DTD/svg11.dtd"><svg t="1629083794020" class="icon" viewBox="0 0 1024 1024" version="1.1" xmlns="http://www.w3.org/2000/svg" p-id="2752" xmlns:xlink="http://www.w3.org/1999/xlink" width="200" height="200"><defs><style type="text/css"></style></defs><path d="M485.312 162.048a32 32 0 0 1 53.312 0l88.832 133.888c12.736 19.2 32 33.216 54.208 39.424l154.816 43.136a32 32 0 0 1 16.512 50.688l-99.904 125.888a96.128 96.128 0 0 0-20.736 63.744l6.848 160.576a32 32 0 0 1-43.136 31.36l-150.592-56.128a95.808 95.808 0 0 0-67.008 0l-150.592 56.128a32 32 0 0 1-43.136-31.36l6.848-160.512c0.96-23.04-6.4-45.696-20.736-63.744L170.944 429.248a32 32 0 0 1 16.512-50.752l154.816-43.136c22.208-6.208 41.472-20.16 54.208-39.424l88.832-133.888z" fill="#FDBB2D" p-id="2753"></path><path d="M316.672 844.8a63.936 63.936 0 0 1-63.872-66.752l6.784-160.576a64.064 64.064 0 0 0-13.824-42.496L145.92 449.088a64 64 0 0 1 32.96-101.44l154.816-43.136a63.616 63.616 0 0 0 36.16-26.304l88.832-133.888c23.744-35.84 82.88-35.84 106.624 0l88.896 133.888c8.512 12.8 21.312 22.144 36.096 26.24l154.816 43.136a64 64 0 0 1 33.088 101.376l-100.032 125.952a63.872 63.872 0 0 0-13.76 42.496l6.784 160.576a64.064 64.064 0 0 1-86.336 62.72l-150.464-56a64 64 0 0 0-44.736 0l-150.656 56.064a64.32 64.32 0 0 1-22.336 4.032zM512 179.776L423.168 313.664c-17.024 25.6-42.688 44.288-72.32 52.544l-154.816 43.136 99.904 125.888c19.136 24.128 28.928 54.336 27.584 84.992L316.736 780.8l150.592-56.128a128 128 0 0 1 89.408 0l150.592 56.064-6.848-160.512a128.192 128.192 0 0 1 27.584-84.992l100.032-125.952-154.816-43.136A127.36 127.36 0 0 1 600.832 313.6L512 179.776z" p-id="2754"></path></svg>