<?xml version="1.0" standalone="no"?><!DOCTYPE svg PUBLIC "-//W3C//DTD SVG 1.1//EN" "http://www.w3.org/Graphics/SVG/1.1/DTD/svg11.dtd"><svg t="1629084714226" class="icon" viewBox="0 0 1024 1024" version="1.1" xmlns="http://www.w3.org/2000/svg" p-id="3043" xmlns:xlink="http://www.w3.org/1999/xlink" width="200" height="200"><defs><style type="text/css"></style></defs><path d="M236.8 505.6c-19.2 0-32 12.8-32 32v275.2c0 19.2 12.8 32 32 32h614.4c12.8 0 25.6-6.4 32-19.2 6.4-12.8 6.4-25.6 0-32l-51.2-108.8c-6.4-12.8-6.4-19.2 0-32l51.2-108.8c6.4-12.8 6.4-25.6 0-32-6.4-12.8-19.2-19.2-32-19.2H236.8z" fill="#F0F0F0" p-id="3044"></path><path d="M851.2 876.8H236.8c-38.4 0-70.4-32-70.4-70.4V537.6c0-38.4 32-70.4 70.4-70.4h614.4c25.6 0 44.8 12.8 57.6 32 12.8 19.2 12.8 44.8 0 64l-51.2 108.8 51.2 108.8c12.8 19.2 6.4 44.8 0 64-12.8 19.2-32 32-57.6 32zM236.8 537.6v275.2h614.4l-51.2-108.8c-6.4-19.2-6.4-44.8 0-64l51.2-108.8H236.8z m0-32v32-32z" p-id="3045"></path><path d="M204.8 96h684.8V576H204.8z" fill="#398BF3" p-id="3046"></path><path d="M883.2 608H204.8c-19.2 0-32-12.8-32-32V96c-6.4-19.2 12.8-32 32-32h684.8c19.2 0 32 12.8 32 32V576c0 12.8-19.2 32-38.4 32zM236.8 537.6h614.4V128H236.8v409.6z" p-id="3047"></path><path d="M614.4 710.4H339.2v236.8l134.4-70.4 134.4 70.4v-236.8z" fill="#EEC761" p-id="3048"></path><path d="M339.2 979.2c-6.4 0-12.8 0-19.2-6.4-12.8-6.4-19.2-19.2-19.2-32V704c0-19.2 12.8-32 32-32h275.2c19.2 0 32 12.8 32 32v236.8c0 12.8-6.4 25.6-19.2 32-12.8 6.4-25.6 6.4-32 0l-121.6-57.6-121.6 57.6c6.4 6.4 0 6.4-6.4 6.4z m32-236.8v147.2l89.6-44.8c12.8-6.4 19.2-6.4 32 0l83.2 44.8v-147.2H371.2z" p-id="3049"></path><path d="M473.6 505.6c-19.2 0-32-12.8-32-32V198.4c0-19.2 12.8-32 32-32s38.4 12.8 38.4 32v89.6l76.8-76.8c12.8-19.2 32-19.2 44.8-6.4 12.8 12.8 12.8 32 0 51.2L563.2 332.8l102.4 76.8c12.8 12.8 19.2 32 6.4 44.8-12.8 19.2-32 19.2-44.8 6.4L512 377.6v96c0 12.8-19.2 32-38.4 32z" p-id="3050"></path></svg>